# xmcd
#
# Track frame offsets: 
#        150
#        30602
#        57990
#        81880
#        100635
#        119142
#        141400
#        165640
#        177147
#        195647
#        215345
#
# Disc length: 3328 seconds
#
# Revision: 3
# Processed by: cddbd v1.5.1PL0 Copyright (c) Steve Scherf et al.
# Submitted via: ExactAudioCopy v0.95a5
#
DISCID=990cfe0b
DTITLE=Cowboy Junkies - 200 More Miles - [CDone)
DYEAR=1995
DGENRE=Rock
TTITLE0=Blue Moon Revisited (A Song For Elvis)
TTITLE1=200 More Miles
TTITLE2=Me And The Devil
TTITLE3=State trooper
TTITLE4=Sun Comes Up, It's Tuesday Morning
TTITLE5=Oregon Hill
TTITLE6=Where Are You Tonight
TTITLE7=Spoken Intro
TTITLE8='Cause Cheap Is How I Feel
TTITLE9=Floorboard Blues
TTITLE10=Murder, Tonight, In The Trailer Park
EXTD=Live Performances 1985-1994 YEAR: 1995
EXTT0=
EXTT1=
EXTT2=
EXTT3=
EXTT4=
EXTT5=
EXTT6=
EXTT7=
EXTT8=
EXTT9=
EXTT10=
PLAYORDER=
